<svg xmlns="http://www.w3.org/2000/svg" version="1.1" xmlns:xlink="http://www.w3.org/1999/xlink" xmlns:svgjs="http://svgjs.dev/svgjs" width="1440" height="258" preserveAspectRatio="none" viewBox="0 0 1440 258"><g mask="url(&quot;#SvgjsMask1030&quot;)" fill="none"><path d="M37 258L295 0L590.5 0L332.5 258z" fill="url(&quot;#SvgjsLinearGradient1031&quot;)"></path><path d="M268.6 258L526.6 0L727.6 0L469.6 258z" fill="url(&quot;#SvgjsLinearGradient1031&quot;)"></path><path d="M513.2 258L771.2 0L1005.2 0L747.2 258z" fill="url(&quot;#SvgjsLinearGradient1031&quot;)"></path><path d="M732.8000000000001 258L990.8000000000001 0L1218.8000000000002 0L960.8000000000001 258z" fill="url(&quot;#SvgjsLinearGradient1031&quot;)"></path><path d="M1395 258L1137 0L909 0L1167 258z" fill="url(&quot;#SvgjsLinearGradient1032&quot;)"></path><path d="M1200.4 258L942.4000000000001 0L696.4000000000001 0L954.4000000000001 258z" fill="url(&quot;#SvgjsLinearGradient1032&quot;)"></path><path d="M923.8 258L665.8 0L383.79999999999995 0L641.8 258z" fill="url(&quot;#SvgjsLinearGradient1032&quot;)"></path><path d="M699.1999999999999 258L441.19999999999993 0L85.69999999999993 0L343.69999999999993 258z" fill="url(&quot;#SvgjsLinearGradient1032&quot;)"></path><path d="M1265.7683059400642 258L1440 83.76830594006412L1440 258z" fill="url(&quot;#SvgjsLinearGradient1031&quot;)"></path><path d="M0 258L174.23169405993588 258L 0 83.76830594006412z" fill="url(&quot;#SvgjsLinearGradient1032&quot;)"></path></g><defs><mask id="SvgjsMask1030"><rect width="1440" height="258" fill="#ffffff"></rect></mask><linearGradient x1="0%" y1="100%" x2="100%" y2="0%" id="SvgjsLinearGradient1031"><stop stop-color="rgba(0, 19, 25, 0.61)" offset="0"></stop><stop stop-opacity="0" stop-color="rgba(0, 19, 25, 0.61)" offset="0.66"></stop></linearGradient><linearGradient x1="100%" y1="100%" x2="0%" y2="0%" id="SvgjsLinearGradient1032"><stop stop-color="rgba(0, 19, 25, 0.61)" offset="0"></stop><stop stop-opacity="0" stop-color="rgba(0, 19, 25, 0.61)" offset="0.66"></stop></linearGradient></defs></svg>