<svg xmlns="http://www.w3.org/2000/svg" xmlns:xlink="http://www.w3.org/1999/xlink" viewBox="0 0 800 400"><defs><style>.cls-1{isolation:isolate;}.cls-2{fill:none;}.cls-10,.cls-11,.cls-12,.cls-13,.cls-14,.cls-15,.cls-16,.cls-17,.cls-18,.cls-19,.cls-20,.cls-21,.cls-22,.cls-23,.cls-24,.cls-25,.cls-26,.cls-27,.cls-28,.cls-29,.cls-3,.cls-30,.cls-31,.cls-32,.cls-33,.cls-34,.cls-35,.cls-36,.cls-37,.cls-38,.cls-39,.cls-4,.cls-40,.cls-41,.cls-42,.cls-43,.cls-44,.cls-45,.cls-46,.cls-47,.cls-48,.cls-49,.cls-5,.cls-50,.cls-51,.cls-52,.cls-53,.cls-54,.cls-55,.cls-56,.cls-57,.cls-58,.cls-59,.cls-6,.cls-60,.cls-61,.cls-63,.cls-65,.cls-67,.cls-68,.cls-69,.cls-7,.cls-70,.cls-71,.cls-72,.cls-73,.cls-74,.cls-75,.cls-76,.cls-77,.cls-78,.cls-79,.cls-8,.cls-80,.cls-81,.cls-82,.cls-83,.cls-84,.cls-85,.cls-86,.cls-87,.cls-88,.cls-89,.cls-9,.cls-90{fill-rule:evenodd;}.cls-10,.cls-11,.cls-12,.cls-13,.cls-14,.cls-15,.cls-16,.cls-17,.cls-18,.cls-19,.cls-20,.cls-21,.cls-22,.cls-23,.cls-24,.cls-25,.cls-26,.cls-27,.cls-28,.cls-29,.cls-3,.cls-30,.cls-31,.cls-32,.cls-33,.cls-34,.cls-35,.cls-36,.cls-37,.cls-38,.cls-39,.cls-4,.cls-40,.cls-41,.cls-42,.cls-43,.cls-44,.cls-45,.cls-46,.cls-47,.cls-48,.cls-49,.cls-5,.cls-50,.cls-51,.cls-52,.cls-53,.cls-54,.cls-55,.cls-56,.cls-57,.cls-58,.cls-59,.cls-6,.cls-60,.cls-61,.cls-62,.cls-63,.cls-64,.cls-65,.cls-66,.cls-67,.cls-68,.cls-69,.cls-7,.cls-70,.cls-71,.cls-72,.cls-73,.cls-74,.cls-75,.cls-76,.cls-77,.cls-78,.cls-79,.cls-8,.cls-80,.cls-81,.cls-82,.cls-83,.cls-84,.cls-85,.cls-86,.cls-87,.cls-88,.cls-89,.cls-9,.cls-90{mix-blend-mode:screen;}.cls-3{fill:url(#Áåçûìÿííûé_ãðàäèåíò_562);}.cls-4{fill:url(#Áåçûìÿííûé_ãðàäèåíò_562-2);}.cls-5{fill:url(#Áåçûìÿííûé_ãðàäèåíò_562-3);}.cls-6{fill:url(#Áåçûìÿííûé_ãðàäèåíò_562-4);}.cls-7{fill:url(#Áåçûìÿííûé_ãðàäèåíò_562-5);}.cls-8{fill:url(#Áåçûìÿííûé_ãðàäèåíò_566);}.cls-9{fill:url(#Áåçûìÿííûé_ãðàäèåíò_566-2);}.cls-10{fill:url(#Áåçûìÿííûé_ãðàäèåíò_566-3);}.cls-11{fill:url(#Áåçûìÿííûé_ãðàäèåíò_566-4);}.cls-12{fill:url(#Áåçûìÿííûé_ãðàäèåíò_566-5);}.cls-13{fill:url(#Áåçûìÿííûé_ãðàäèåíò_566-6);}.cls-14,.cls-30{opacity:0.2;}.cls-14{fill:url(#Áåçûìÿííûé_ãðàäèåíò_2);}.cls-15,.cls-18,.cls-19,.cls-20,.cls-31,.cls-85{opacity:0.4;}.cls-15{fill:url(#Áåçûìÿííûé_ãðàäèåíò_621);}.cls-16{fill:url(#Áåçûìÿííûé_ãðàäèåíò_562-6);}.cls-17{fill:url(#Áåçûìÿííûé_ãðàäèåíò_566-7);}.cls-18{fill:url(#Áåçûìÿííûé_ãðàäèåíò_621-2);}.cls-19{fill:url(#Áåçûìÿííûé_ãðàäèåíò_621-3);}.cls-20{fill:url(#Áåçûìÿííûé_ãðàäèåíò_621-4);}.cls-21,.cls-32,.cls-42,.cls-43,.cls-44,.cls-46,.cls-51,.cls-58,.cls-66,.cls-75,.cls-88{opacity:0.41;}.cls-21{fill:url(#Áåçûìÿííûé_ãðàäèåíò_2-2);}.cls-22,.cls-33,.cls-47,.cls-52,.cls-59,.cls-64,.cls-67,.cls-68,.cls-76,.cls-81,.cls-82,.cls-89,.cls-90{opacity:0.5;}.cls-22{fill:url(#Áåçûìÿííûé_ãðàäèåíò_2-3);}.cls-23{fill:url(#Áåçûìÿííûé_ãðàäèåíò_562-7);}.cls-24{fill:url(#Áåçûìÿííûé_ãðàäèåíò_562-8);}.cls-25{fill:url(#Áåçûìÿííûé_ãðàäèåíò_566-8);}.cls-26{fill:url(#Áåçûìÿííûé_ãðàäèåíò_566-9);}.cls-27{fill:url(#Áåçûìÿííûé_ãðàäèåíò_566-10);}.cls-28{fill:url(#Áåçûìÿííûé_ãðàäèåíò_566-11);}.cls-29{fill:url(#Áåçûìÿííûé_ãðàäèåíò_566-12);}.cls-30{fill:url(#Áåçûìÿííûé_ãðàäèåíò_2-4);}.cls-31{fill:url(#Áåçûìÿííûé_ãðàäèåíò_621-5);}.cls-32{fill:url(#Áåçûìÿííûé_ãðàäèåíò_2-5);}.cls-33{fill:url(#Áåçûìÿííûé_ãðàäèåíò_2-6);}.cls-34{fill:url(#Áåçûìÿííûé_ãðàäèåíò_562-9);}.cls-35{fill:url(#Áåçûìÿííûé_ãðàäèåíò_562-10);}.cls-36{fill:url(#Áåçûìÿííûé_ãðàäèåíò_562-11);}.cls-37{fill:url(#Áåçûìÿííûé_ãðàäèåíò_562-12);}.cls-38{fill:url(#Áåçûìÿííûé_ãðàäèåíò_562-13);}.cls-39{fill:url(#Áåçûìÿííûé_ãðàäèåíò_562-14);}.cls-40{fill:url(#Áåçûìÿííûé_ãðàäèåíò_562-15);}.cls-41{fill:url(#Áåçûìÿííûé_ãðàäèåíò_566-13);}.cls-42{fill:url(#Áåçûìÿííûé_ãðàäèåíò_2-7);}.cls-43{fill:url(#Áåçûìÿííûé_ãðàäèåíò_2-8);}.cls-44{fill:url(#Áåçûìÿííûé_ãðàäèåíò_2-9);}.cls-45{fill:url(#Áåçûìÿííûé_ãðàäèåíò_562-16);}.cls-46{fill:url(#Áåçûìÿííûé_ãðàäèåíò_2-10);}.cls-47{fill:url(#Áåçûìÿííûé_ãðàäèåíò_2-11);}.cls-48{fill:url(#Áåçûìÿííûé_ãðàäèåíò_562-17);}.cls-49{fill:url(#Áåçûìÿííûé_ãðàäèåíò_562-18);}.cls-50{fill:url(#Áåçûìÿííûé_ãðàäèåíò_566-14);}.cls-51{fill:url(#Áåçûìÿííûé_ãðàäèåíò_2-12);}.cls-52{fill:url(#Áåçûìÿííûé_ãðàäèåíò_2-13);}.cls-53{fill:url(#Áåçûìÿííûé_ãðàäèåíò_562-19);}.cls-54{fill:url(#Áåçûìÿííûé_ãðàäèåíò_562-20);}.cls-55{fill:url(#Áåçûìÿííûé_ãðàäèåíò_562-21);}.cls-56{fill:url(#Áåçûìÿííûé_ãðàäèåíò_562-22);}.cls-57{fill:url(#Áåçûìÿííûé_ãðàäèåíò_566-15);}.cls-58{fill:url(#Áåçûìÿííûé_ãðàäèåíò_2-14);}.cls-59{fill:url(#Áåçûìÿííûé_ãðàäèåíò_2-15);}.cls-60{fill:url(#Áåçûìÿííûé_ãðàäèåíò_696);}.cls-61{fill:url(#Áåçûìÿííûé_ãðàäèåíò_696-2);}.cls-62{fill:url(#Áåçûìÿííûé_ãðàäèåíò_696-3);}.cls-63{fill:url(#Áåçûìÿííûé_ãðàäèåíò_562-23);}.cls-64{fill:url(#Áåçûìÿííûé_ãðàäèåíò_696-4);}.cls-65{fill:url(#Áåçûìÿííûé_ãðàäèåíò_566-16);}.cls-66{fill:url(#Áåçûìÿííûé_ãðàäèåíò_2-16);}.cls-67{fill:url(#Áåçûìÿííûé_ãðàäèåíò_2-17);}.cls-68{fill:url(#Áåçûìÿííûé_ãðàäèåíò_2-18);}.cls-69{fill:url(#Áåçûìÿííûé_ãðàäèåíò_566-17);}.cls-70{fill:url(#Áåçûìÿííûé_ãðàäèåíò_566-18);}.cls-71{fill:url(#Áåçûìÿííûé_ãðàäèåíò_562-24);}.cls-72{fill:url(#Áåçûìÿííûé_ãðàäèåíò_562-25);}.cls-73{fill:url(#Áåçûìÿííûé_ãðàäèåíò_562-26);}.cls-74{fill:url(#Áåçûìÿííûé_ãðàäèåíò_566-19);}.cls-75{fill:url(#Áåçûìÿííûé_ãðàäèåíò_2-19);}.cls-76{fill:url(#Áåçûìÿííûé_ãðàäèåíò_2-20);}.cls-77{fill:url(#Áåçûìÿííûé_ãðàäèåíò_566-20);}.cls-78{fill:url(#Áåçûìÿííûé_ãðàäèåíò_566-21);}.cls-79{fill:url(#Áåçûìÿííûé_ãðàäèåíò_562-27);}.cls-80{fill:url(#Áåçûìÿííûé_ãðàäèåíò_566-22);}.cls-81{fill:url(#Áåçûìÿííûé_ãðàäèåíò_2-21);}.cls-82{fill:url(#Áåçûìÿííûé_ãðàäèåíò_2-22);}.cls-83{fill:url(#Áåçûìÿííûé_ãðàäèåíò_562-28);}.cls-84{fill:url(#Áåçûìÿííûé_ãðàäèåíò_566-23);}.cls-85{fill:url(#Áåçûìÿííûé_ãðàäèåíò_621-6);}.cls-86{fill:url(#Áåçûìÿííûé_ãðàäèåíò_562-29);}.cls-87{fill:url(#Áåçûìÿííûé_ãðàäèåíò_562-30);}.cls-88{fill:url(#Áåçûìÿííûé_ãðàäèåíò_2-23);}.cls-89{fill:url(#Áåçûìÿííûé_ãðàäèåíò_2-24);}.cls-90{fill:url(#Áåçûìÿííûé_ãðàäèåíò_2-25);}</style><radialGradient id="Áåçûìÿííûé_ãðàäèåíò_562" cx="243" cy="264.68" r="1.3" gradientTransform="translate(132.24 -137.06) rotate(24.35)" gradientUnits="userSpaceOnUse"><stop offset="0.02" stop-color="#ff9d77"/><stop offset="0.33" stop-color="#fd9c76"/><stop offset="0.46" stop-color="#f69773"/><stop offset="0.56" stop-color="#e9906d"/><stop offset="0.65" stop-color="#d78464"/><stop offset="0.72" stop-color="#c0765a"/><stop offset="0.79" stop-color="#a3644c"/><stop offset="0.85" stop-color="#814f3c"/><stop offset="0.9" stop-color="#59372a"/><stop offset="0.95" stop-color="#2e1c15"/><stop offset="1"/></radialGradient><radialGradient id="Áåçûìÿííûé_ãðàäèåíò_562-2" cx="267.16" cy="125.66" r="1.3" xlink:href="#Áåçûìÿííûé_ãðàäèåíò_562"/><radialGradient id="Áåçûìÿííûé_ãðàäèåíò_562-3" cx="236" cy="283.52" r="1.3" gradientTransform="translate(281.13 -192.96) rotate(46.25)" xlink:href="#Áåçûìÿííûé_ãðàäèåíò_562"/><radialGradient id="Áåçûìÿííûé_ãðàäèåíò_562-4" cx="239.45" cy="331.93" r="1.3" gradientTransform="translate(281.13 -192.96) rotate(46.25)" xlink:href="#Áåçûìÿííûé_ãðàäèåíò_562"/><radialGradient id="Áåçûìÿííûé_ãðàäèåíò_562-5" cx="233.08" cy="299.74" r="0.47" gradientTransform="translate(281.13 -192.96) rotate(46.25)" xlink:href="#Áåçûìÿííûé_ãðàäèåíò_562"/><radialGradient id="Áåçûìÿííûé_ãðàäèåíò_566" cx="233.68" cy="266.76" r="0.6" gradientTransform="translate(281.13 -192.96) rotate(46.25)" gradientUnits="userSpaceOnUse"><stop offset="0.02" stop-color="#ff7500"/><stop offset="0.33" stop-color="#fd7400"/><stop offset="0.46" stop-color="#f67100"/><stop offset="0.56" stop-color="#e96b00"/><stop offset="0.65" stop-color="#d76300"/><stop offset="0.72" stop-color="#c05800"/><stop offset="0.79" stop-color="#a34b00"/><stop offset="0.85" stop-color="#813b00"/><stop offset="0.9" stop-color="#592900"/><stop offset="0.95" stop-color="#2e1500"/><stop offset="1"/></radialGradient><radialGradient id="Áåçûìÿííûé_ãðàäèåíò_566-2" cx="233.08" cy="285.47" r="0.6" xlink:href="#Áåçûìÿííûé_ãðàäèåíò_566"/><radialGradient id="Áåçûìÿííûé_ãðàäèåíò_566-3" cx="232.6" cy="330.96" r="0.6" xlink:href="#Áåçûìÿííûé_ãðàäèåíò_566"/><radialGradient id="Áåçûìÿííûé_ãðàäèåíò_566-4" cx="241.1" cy="272.42" r="0.6" gradientTransform="translate(132.24 -137.06) rotate(24.35)" xlink:href="#Áåçûìÿííûé_ãðàäèåíò_566"/><radialGradient id="Áåçûìÿííûé_ãðàäèåíò_566-5" cx="243.11" cy="248.72" r="0.6" xlink:href="#Áåçûìÿííûé_ãðàäèåíò_566"/><radialGradient id="Áåçûìÿííûé_ãðàäèåíò_566-6" cx="235.73" cy="274.39" r="0.6" gradientTransform="translate(132.24 -137.06) rotate(24.35)" xlink:href="#Áåçûìÿííûé_ãðàäèåíò_566"/><radialGradient id="Áåçûìÿííûé_ãðàäèåíò_2" cx="231.72" cy="262.47" r="4.28" gradientTransform="translate(281.13 -192.96) rotate(46.25)" gradientUnits="userSpaceOnUse"><stop offset="0.03" stop-color="#ff5400"/><stop offset="0.15" stop-color="#fb5300"/><stop offset="0.27" stop-color="#ef4f00"/><stop offset="0.4" stop-color="#db4800"/><stop offset="0.52" stop-color="#bf3f00"/><stop offset="0.64" stop-color="#9b3300"/><stop offset="0.76" stop-color="#6f2500"/><stop offset="0.88" stop-color="#3b1400"/><stop offset="1"/></radialGradient><radialGradient id="Áåçûìÿííûé_ãðàäèåíò_621" cx="243.97" cy="331.58" r="9.06" gradientTransform="translate(281.13 -192.96) rotate(46.25)" gradientUnits="userSpaceOnUse"><stop offset="0.02" stop-color="#4c427c"/><stop offset="0.22" stop-color="#3b3461"/><stop offset="0.75" stop-color="#110f1b"/><stop offset="1"/></radialGradient><radialGradient id="Áåçûìÿííûé_ãðàäèåíò_562-6" cx="208.87" cy="198.51" r="1.3" gradientTransform="translate(281.13 -192.96) rotate(46.25)" xlink:href="#Áåçûìÿííûé_ãðàäèåíò_562"/><radialGradient id="Áåçûìÿííûé_ãðàäèåíò_566-7" cx="202.03" cy="197.54" r="0.6" xlink:href="#Áåçûìÿííûé_ãðàäèåíò_566"/><radialGradient id="Áåçûìÿííûé_ãðàäèåíò_621-2" cx="213.39" cy="198.16" r="9.06" xlink:href="#Áåçûìÿííûé_ãðàäèåíò_621"/><radialGradient id="Áåçûìÿííûé_ãðàäèåíò_621-3" cx="235.13" cy="245.98" r="9.06" gradientTransform="translate(132.24 -137.06) rotate(24.35)" xlink:href="#Áåçûìÿííûé_ãðàäèåíò_621"/><radialGradient id="Áåçûìÿííûé_ãðàäèåíò_621-4" cx="303.08" cy="245.82" r="9.06" gradientTransform="translate(132.24 -137.06) rotate(24.35)" xlink:href="#Áåçûìÿííûé_ãðàäèåíò_621"/><radialGradient id="Áåçûìÿííûé_ãðàäèåíò_2-2" cx="222.78" cy="302.49" r="2.75" xlink:href="#Áåçûìÿííûé_ãðàäèåíò_2"/><radialGradient id="Áåçûìÿííûé_ãðàäèåíò_2-3" cx="226.16" cy="290.68" r="1.45" xlink:href="#Áåçûìÿííûé_ãðàäèåíò_2"/><radialGradient id="Áåçûìÿííûé_ãðàäèåíò_562-7" cx="382.23" cy="304.34" r="1.3" gradientTransform="translate(281.13 -192.96) rotate(46.25)" xlink:href="#Áåçûìÿííûé_ãðàäèåíò_562"/><radialGradient id="Áåçûìÿííûé_ãðàäèåíò_562-8" cx="379.31" cy="320.55" r="0.47" gradientTransform="translate(281.13 -192.96) rotate(46.25)" xlink:href="#Áåçûìÿííûé_ãðàäèåíò_562"/><radialGradient id="Áåçûìÿííûé_ãðàäèåíò_566-8" cx="379.91" cy="287.57" r="0.6" xlink:href="#Áåçûìÿííûé_ãðàäèåíò_566"/><radialGradient id="Áåçûìÿííûé_ãðàäèåíò_566-9" cx="379.31" cy="306.29" r="0.6" xlink:href="#Áåçûìÿííûé_ãðàäèåíò_566"/><radialGradient id="Áåçûìÿííûé_ãðàäèåíò_566-10" cx="389.35" cy="269.53" r="0.6" xlink:href="#Áåçûìÿííûé_ãðàäèåíò_566"/><radialGradient id="Áåçûìÿííûé_ãðàäèåíò_566-11" cx="430.5" cy="282.08" r="0.6" xlink:href="#Áåçûìÿííûé_ãðàäèåíò_566"/><radialGradient id="Áåçûìÿííûé_ãðàäèåíò_566-12" cx="427.66" cy="318.72" r="0.6" xlink:href="#Áåçûìÿííûé_ãðàäèåíò_566"/><radialGradient id="Áåçûìÿííûé_ãðàäèåíò_2-4" cx="377.95" cy="283.29" r="4.28" xlink:href="#Áåçûìÿííûé_ãðàäèåíò_2"/><radialGradient id="Áåçûìÿííûé_ãðàäèåíò_621-5" cx="363.05" cy="319.83" r="9.06" gradientTransform="translate(132.24 -137.06) rotate(24.35)" xlink:href="#Áåçûìÿííûé_ãðàäèåíò_621"/><radialGradient id="Áåçûìÿííûé_ãðàäèåíò_2-5" cx="369.01" cy="323.3" r="2.75" xlink:href="#Áåçûìÿííûé_ãðàäèåíò_2"/><radialGradient id="Áåçûìÿííûé_ãðàäèåíò_2-6" cx="372.39" cy="311.5" r="1.45" xlink:href="#Áåçûìÿííûé_ãðàäèåíò_2"/><radialGradient id="Áåçûìÿííûé_ãðàäèåíò_562-9" cx="247.78" cy="304.63" r="1.3" xlink:href="#Áåçûìÿííûé_ãðàäèåíò_562"/><radialGradient id="Áåçûìÿííûé_ãðàäèåíò_562-10" cx="267.31" cy="265.54" r="1.3" xlink:href="#Áåçûìÿííûé_ãðàäèåíò_562"/><radialGradient id="Áåçûìÿííûé_ãðàäèåíò_562-11" cx="287.12" cy="279.08" r="1.3" xlink:href="#Áåçûìÿííûé_ãðàäèåíò_562"/><radialGradient id="Áåçûìÿííûé_ãðàäèåíò_562-12" cx="269.68" cy="178.51" r="1.3" xlink:href="#Áåçûìÿííûé_ãðàäèåíò_562"/><radialGradient id="Áåçûìÿííûé_ãðàäèåíò_562-13" cx="197.15" cy="324.6" r="1.3" xlink:href="#Áåçûìÿííûé_ãðàäèåíò_562"/><radialGradient id="Áåçûìÿííûé_ãðàäèåíò_562-14" cx="195.15" cy="336.04" r="2.09" xlink:href="#Áåçûìÿííûé_ãðàäèåíò_562"/><radialGradient id="Áåçûìÿííûé_ãðàäèåíò_562-15" cx="244.86" cy="320.84" r="0.47" xlink:href="#Áåçûìÿííûé_ãðàäèåíò_562"/><radialGradient id="Áåçûìÿííûé_ãðàäèåíò_566-13" cx="244.86" cy="306.58" r="0.6" gradientTransform="translate(132.24 -137.06) rotate(24.35)" xlink:href="#Áåçûìÿííûé_ãðàäèåíò_566"/><radialGradient id="Áåçûìÿííûé_ãðàäèåíò_2-7" cx="234.56" cy="323.59" r="2.75" gradientTransform="translate(132.24 -137.06) rotate(24.35)" xlink:href="#Áåçûìÿííûé_ãðàäèåíò_2"/><radialGradient id="Áåçûìÿííûé_ãðàäèåíò_2-8" cx="286.31" cy="300.91" r="2.75" gradientTransform="translate(132.24 -137.06) rotate(24.35)" xlink:href="#Áåçûìÿííûé_ãðàäèåíò_2"/><radialGradient id="Áåçûìÿííûé_ãðàäèåíò_2-9" cx="284.56" cy="132.23" r="2.75" gradientTransform="translate(132.24 -137.06) rotate(24.35)" xlink:href="#Áåçûìÿííûé_ãðàäèåíò_2"/><radialGradient id="Áåçûìÿííûé_ãðàäèåíò_562-16" cx="275.08" cy="351.94" r="1.3" xlink:href="#Áåçûìÿííûé_ãðàäèåíò_562"/><radialGradient id="Áåçûìÿííûé_ãðàäèåíò_2-10" cx="292.48" cy="358.51" r="2.75" gradientTransform="translate(132.24 -137.06) rotate(24.35)" xlink:href="#Áåçûìÿííûé_ãðàäèåíò_2"/><radialGradient id="Áåçûìÿííûé_ãðàäèåíò_2-11" cx="237.94" cy="311.79" r="1.45" gradientTransform="translate(132.24 -137.06) rotate(24.35)" xlink:href="#Áåçûìÿííûé_ãðàäèåíò_2"/><radialGradient id="Áåçûìÿííûé_ãðàäèåíò_562-17" cx="528.61" cy="23.78" r="1.3" xlink:href="#Áåçûìÿííûé_ãðàäèåíò_562"/><radialGradient id="Áåçûìÿííûé_ãðàäèåíò_562-18" cx="525.69" cy="39.99" r="0.47" xlink:href="#Áåçûìÿííûé_ãðàäèåíò_562"/><radialGradient id="Áåçûìÿííûé_ãðàäèåíò_566-14" cx="525.69" cy="25.72" r="0.6" gradientTransform="translate(132.24 -137.06) rotate(24.35)" xlink:href="#Áåçûìÿííûé_ãðàäèåíò_566"/><radialGradient id="Áåçûìÿííûé_ãðàäèåíò_2-12" cx="515.39" cy="42.74" r="2.75" gradientTransform="translate(132.24 -137.06) rotate(24.35)" xlink:href="#Áåçûìÿííûé_ãðàäèåíò_2"/><radialGradient id="Áåçûìÿííûé_ãðàäèåíò_2-13" cx="518.77" cy="30.94" r="1.45" gradientTransform="translate(132.24 -137.06) rotate(24.35)" xlink:href="#Áåçûìÿííûé_ãðàäèåíò_2"/><radialGradient id="Áåçûìÿííûé_ãðàäèåíò_562-19" cx="579.27" cy="145.83" r="1.3" xlink:href="#Áåçûìÿííûé_ãðàäèåíò_562"/><radialGradient id="Áåçûìÿííûé_ãðàäèåíò_562-20" cx="599" cy="184.24" r="1.3" xlink:href="#Áåçûìÿííûé_ãðàäèåíò_562"/><radialGradient id="Áåçûìÿííûé_ãðàäèåíò_562-21" cx="597" cy="195.68" r="2.09" xlink:href="#Áåçûìÿííûé_ãðàäèåíò_562"/><radialGradient id="Áåçûìÿííûé_ãðàäèåíò_562-22" cx="351.39" cy="82.41" r="0.47" xlink:href="#Áåçûìÿííûé_ãðàäèåíò_562"/><radialGradient id="Áåçûìÿííûé_ãðàäèåíò_566-15" cx="628.95" cy="236.29" r="0.6" gradientTransform="translate(132.24 -137.06) rotate(24.35)" xlink:href="#Áåçûìÿííûé_ãðàäèåíò_566"/><radialGradient id="Áåçûìÿííûé_ãðàäèåíò_2-14" cx="341.09" cy="85.16" r="2.75" gradientTransform="translate(132.24 -137.06) rotate(24.35)" xlink:href="#Áåçûìÿííûé_ãðàäèåíò_2"/><radialGradient id="Áåçûìÿííûé_ãðàäèåíò_2-15" cx="344.47" cy="73.36" r="1.45" gradientTransform="translate(132.24 -137.06) rotate(24.35)" xlink:href="#Áåçûìÿííûé_ãðàäèåíò_2"/><radialGradient id="Áåçûìÿííûé_ãðàäèåíò_696" cx="672.62" cy="123.81" r="6.96" gradientTransform="translate(132.24 -137.06) rotate(24.35)" gradientUnits="userSpaceOnUse"><stop offset="0.02" stop-color="#af5500"/><stop offset="0.36" stop-color="#ad5400"/><stop offset="0.51" stop-color="#a65000"/><stop offset="0.62" stop-color="#994a00"/><stop offset="0.71" stop-color="#874200"/><stop offset="0.79" stop-color="#703600"/><stop offset="0.86" stop-color="#532800"/><stop offset="0.93" stop-color="#311800"/><stop offset="0.99" stop-color="#0b0500"/><stop offset="1"/></radialGradient><radialGradient id="Áåçûìÿííûé_ãðàäèåíò_696-2" cx="487" cy="101.55" r="6.96" xlink:href="#Áåçûìÿííûé_ãðàäèåíò_696"/><radialGradient id="Áåçûìÿííûé_ãðàäèåíò_696-3" cx="485.81" cy="-1.63" r="6.96" gradientTransform="translate(590.92 -423.79) rotate(92.01)" xlink:href="#Áåçûìÿííûé_ãðàäèåíò_696"/><radialGradient id="Áåçûìÿííûé_ãðàäèåíò_562-23" cx="356.4" cy="93.33" r="2.51" xlink:href="#Áåçûìÿííûé_ãðàäèåíò_562"/><radialGradient id="Áåçûìÿííûé_ãðàäèåíò_696-4" cx="666.92" cy="168.72" r="12.67" gradientTransform="matrix(-0.32, 0.95, -0.95, -0.32, 1046.06, -284.54)" xlink:href="#Áåçûìÿííûé_ãðàäèåíò_696"/><radialGradient id="Áåçûìÿííûé_ãðàäèåíò_566-16" cx="651.73" cy="114.93" r="3.21" gradientTransform="translate(132.24 -137.06) rotate(24.35)" xlink:href="#Áåçûìÿííûé_ãðàäèåíò_566"/><radialGradient id="Áåçûìÿííûé_ãðàäèåíò_2-16" cx="596.49" cy="206.16" r="14.76" gradientTransform="translate(313.28 -270.18) rotate(44.86)" xlink:href="#Áåçûìÿííûé_ãðàäèåíò_2"/><radialGradient id="Áåçûìÿííûé_ãðàäèåíò_2-17" cx="604.44" cy="147" r="7.76" gradientTransform="translate(132.24 -137.06) rotate(24.35)" xlink:href="#Áåçûìÿííûé_ãðàäèåíò_2"/><radialGradient id="Áåçûìÿííûé_ãðàäèåíò_2-18" cx="239.05" cy="281.27" r="1.45" gradientTransform="translate(132.24 -137.06) rotate(24.35)" xlink:href="#Áåçûìÿííûé_ãðàäèåíò_2"/><radialGradient id="Áåçûìÿííûé_ãðàäèåíò_566-17" cx="530.15" cy="182.09" r="0.6" gradientTransform="translate(132.24 -137.06) rotate(24.35)" xlink:href="#Áåçûìÿííûé_ãðàäèåíò_566"/><radialGradient id="Áåçûìÿííûé_ãðàäèåíò_566-18" cx="524.78" cy="184.06" r="0.6" gradientTransform="translate(132.24 -137.06) rotate(24.35)" xlink:href="#Áåçûìÿííûé_ãðàäèåíò_566"/><radialGradient id="Áåçûìÿííûé_ãðàäèåíò_562-24" cx="536.83" cy="214.3" r="1.3" xlink:href="#Áåçûìÿííûé_ãðàäèåíò_562"/><radialGradient id="Áåçûìÿííûé_ãðàäèåíò_562-25" cx="545.57" cy="256.17" r="1.3" xlink:href="#Áåçûìÿííûé_ãðàäèåíò_562"/><radialGradient id="Áåçûìÿííûé_ãðàäèåíò_562-26" cx="565.38" cy="269.7" r="1.3" xlink:href="#Áåçûìÿííûé_ãðàäèåíò_562"/><radialGradient id="Áåçûìÿííûé_ãðàäèåíò_566-19" cx="533.91" cy="216.25" r="0.6" gradientTransform="translate(132.24 -137.06) rotate(24.35)" xlink:href="#Áåçûìÿííûé_ãðàäèåíò_566"/><radialGradient id="Áåçûìÿííûé_ãðàäèåíò_2-19" cx="564.57" cy="291.54" r="2.75" gradientTransform="translate(132.24 -137.06) rotate(24.35)" xlink:href="#Áåçûìÿííûé_ãðàäèåíò_2"/><radialGradient id="Áåçûìÿííûé_ãðàäèåíò_2-20" cx="528.1" cy="190.95" r="1.45" gradientTransform="translate(132.24 -137.06) rotate(24.35)" xlink:href="#Áåçûìÿííûé_ãðàäèåíò_2"/><radialGradient id="Áåçûìÿííûé_ãðàäèåíò_566-20" cx="473.11" cy="35.42" r="0.6" gradientTransform="translate(132.24 -137.06) rotate(24.35)" xlink:href="#Áåçûìÿííûé_ãðàäèåíò_566"/><radialGradient id="Áåçûìÿííûé_ãðàäèåíò_566-21" cx="467.74" cy="37.38" r="0.6" gradientTransform="translate(132.24 -137.06) rotate(24.35)" xlink:href="#Áåçûìÿííûé_ãðàäèåíò_566"/><radialGradient id="Áåçûìÿííûé_ãðàäèåíò_562-27" cx="479.8" cy="67.63" r="1.3" xlink:href="#Áåçûìÿííûé_ãðàäèåíò_562"/><radialGradient id="Áåçûìÿííûé_ãðàäèåíò_566-22" cx="476.88" cy="69.58" r="0.6" gradientTransform="translate(132.24 -137.06) rotate(24.35)" xlink:href="#Áåçûìÿííûé_ãðàäèåíò_566"/><radialGradient id="Áåçûìÿííûé_ãðàäèåíò_2-21" cx="471.07" cy="44.27" r="1.45" gradientTransform="translate(132.24 -137.06) rotate(24.35)" xlink:href="#Áåçûìÿííûé_ãðàäèåíò_2"/><radialGradient id="Áåçûìÿííûé_ãðàäèåíò_2-22" cx="226.94" cy="348.36" r="1.45" xlink:href="#Áåçûìÿííûé_ãðàäèåíò_2"/><radialGradient id="Áåçûìÿííûé_ãðàäèåíò_562-28" cx="491.67" cy="-1.32" r="1.3" gradientTransform="translate(281.13 -192.96) rotate(46.25)" xlink:href="#Áåçûìÿííûé_ãðàäèåíò_562"/><radialGradient id="Áåçûìÿííûé_ãðàäèåíò_566-23" cx="484.83" cy="-2.3" r="0.6" xlink:href="#Áåçûìÿííûé_ãðàäèåíò_566"/><radialGradient id="Áåçûìÿííûé_ãðàäèåíò_621-6" cx="496.19" cy="-1.68" r="9.06" xlink:href="#Áåçûìÿííûé_ãðàäèåíò_621"/><radialGradient id="Áåçûìÿííûé_ãðàäèåíò_562-29" cx="555.46" cy="109.46" r="1.3" xlink:href="#Áåçûìÿííûé_ãðàäèåíò_562"/><radialGradient id="Áåçûìÿííûé_ãðàäèåíò_562-30" cx="553.47" cy="120.9" r="2.09" xlink:href="#Áåçûìÿííûé_ãðàäèåíò_562"/><radialGradient id="Áåçûìÿííûé_ãðàäèåíò_2-23" cx="589.92" cy="109.98" r="2.75" gradientTransform="translate(132.24 -137.06) rotate(24.35)" xlink:href="#Áåçûìÿííûé_ãðàäèåíò_2"/><radialGradient id="Áåçûìÿííûé_ãðàäèåíò_2-24" cx="464" cy="105.92" r="1.45" gradientTransform="translate(132.24 -137.06) rotate(24.35)" xlink:href="#Áåçûìÿííûé_ãðàäèåíò_2"/><radialGradient id="Áåçûìÿííûé_ãðàäèåíò_2-25" cx="479.16" cy="15.1" r="1.45" xlink:href="#Áåçûìÿííûé_ãðàäèåíò_2"/></defs><g class="cls-1"><g id="Layer_2" data-name="Layer 2"><g id="forest"><rect class="cls-2" width="800" height="400"/><path class="cls-3" d="M245.66,204.79a1.3,1.3,0,1,1-.64-1.71A1.29,1.29,0,0,1,245.66,204.79Z"/><path class="cls-4" d="M325,88.11a1.31,1.31,0,0,1-1.72.65,1.29,1.29,0,0,1-.65-1.72A1.3,1.3,0,1,1,325,88.11Z"/><path class="cls-5" d="M240.43,174.5a1.3,1.3,0,1,1,0-1.84A1.29,1.29,0,0,1,240.43,174.5Z"/><path class="cls-6" d="M207.85,210.46a1.3,1.3,0,0,1-1.79-1.88,1.3,1.3,0,0,1,1.79,1.88Z"/><path class="cls-7" d="M226.13,183a.46.46,0,0,1-.66,0,.47.47,0,1,1,.66,0Z"/><path class="cls-8" d="M250.46,160.72a.6.6,0,0,1-.85,0,.6.6,0,0,1,.86-.83A.61.61,0,0,1,250.46,160.72Z"/><path class="cls-9" d="M236.52,173.23a.59.59,0,0,1-.84,0,.6.6,0,1,1,.86-.83A.6.6,0,0,1,236.52,173.23Z"/><path class="cls-10" d="M203.34,204.34a.6.6,0,1,1,0-.85A.6.6,0,0,1,203.34,204.34Z"/><path class="cls-11" d="M240.11,210.77a.6.6,0,0,1-.79.3.6.6,0,1,1,.49-1.09A.6.6,0,0,1,240.11,210.77Z"/><path class="cls-12" d="M270,155.06a.6.6,0,0,1-.85,0,.6.6,0,0,1,.87-.83A.6.6,0,0,1,270,155.06Z"/><path class="cls-13" d="M234.4,210.35a.6.6,0,0,1-.79.3.61.61,0,0,1-.3-.8.6.6,0,0,1,.8-.29A.59.59,0,0,1,234.4,210.35Z"/><path class="cls-14" d="M254.74,159a4.28,4.28,0,1,1,.13-6.05A4.28,4.28,0,0,1,254.74,159Z"/><path class="cls-15" d="M216.6,219.08a9.06,9.06,0,1,1,.28-12.8A9.06,9.06,0,0,1,216.6,219.08Z"/><path class="cls-16" d="M283.08,96.12a1.3,1.3,0,1,1,0-1.84A1.3,1.3,0,0,1,283.08,96.12Z"/><path class="cls-17" d="M278.57,90a.6.6,0,1,1,0-.84A.59.59,0,0,1,278.57,90Z"/><path class="cls-18" d="M291.83,104.74a9.06,9.06,0,1,1,.28-12.81A9.06,9.06,0,0,1,291.83,104.74Z"/><path class="cls-19" d="M253.28,187.71a9.06,9.06,0,1,1-4.52-12A9.06,9.06,0,0,1,253.28,187.71Z"/><path class="cls-20" d="M315.24,215.58a9.06,9.06,0,1,1-4.52-12A9.06,9.06,0,0,1,315.24,215.58Z"/><path class="cls-21" d="M218.6,179.11a2.75,2.75,0,1,1,.08-3.89A2.76,2.76,0,0,1,218.6,179.11Z"/><path class="cls-22" d="M228.56,172.44a1.45,1.45,0,1,1,0-2A1.44,1.44,0,0,1,228.56,172.44Z"/><path class="cls-23" d="M326.52,294.51a1.3,1.3,0,1,1,0-1.83A1.3,1.3,0,0,1,326.52,294.51Z"/><path class="cls-24" d="M312.21,303a.47.47,0,0,1-.66,0,.46.46,0,0,1,0-.66.47.47,0,1,1,.64.68Z"/><path class="cls-25" d="M336.54,280.74a.6.6,0,1,1,0-.85A.6.6,0,0,1,336.54,280.74Z"/><path class="cls-26" d="M322.61,293.25a.6.6,0,1,1,0-.85A.61.61,0,0,1,322.61,293.25Z"/><path class="cls-27" d="M356.1,275.08a.6.6,0,1,1-.83-.87.59.59,0,0,1,.84,0A.61.61,0,0,1,356.1,275.08Z"/><path class="cls-28" d="M375.49,313.49a.61.61,0,0,1-.85,0,.6.6,0,1,1,.85,0Z"/><path class="cls-29" d="M347.06,336.76a.61.61,0,0,1-.85,0,.6.6,0,1,1,.87-.83A.59.59,0,0,1,347.06,336.76Z"/><path class="cls-30" d="M340.83,279A4.29,4.29,0,1,1,341,273,4.28,4.28,0,0,1,340.83,279Z"/><path class="cls-31" d="M339.36,307.73a9.06,9.06,0,1,1-4.52-12A9,9,0,0,1,339.36,307.73Z"/><path class="cls-32" d="M304.68,299.13a2.75,2.75,0,1,1,.09-3.89A2.75,2.75,0,0,1,304.68,299.13Z"/><path class="cls-33" d="M314.64,292.46a1.45,1.45,0,0,1-2-2.09,1.45,1.45,0,1,1,2,2.09Z"/><path class="cls-34" d="M233.55,243.16a1.3,1.3,0,1,1-.64-1.72A1.3,1.3,0,0,1,233.55,243.16Z"/><path class="cls-35" d="M267.45,215.6a1.3,1.3,0,1,1-.64-1.72A1.3,1.3,0,0,1,267.45,215.6Z"/><path class="cls-36" d="M279.92,236.1a1.3,1.3,0,1,1-.65-1.72A1.29,1.29,0,0,1,279.92,236.1Z"/><path class="cls-37" d="M305.5,137.29a1.3,1.3,0,1,1-.65-1.71A1.28,1.28,0,0,1,305.5,137.29Z"/><path class="cls-38" d="M179.19,240.48a1.3,1.3,0,1,1-.65-1.72A1.3,1.3,0,0,1,179.19,240.48Z"/><path class="cls-39" d="M173.37,250.4a2.09,2.09,0,1,1-1-2.76A2.08,2.08,0,0,1,173.37,250.4Z"/><path class="cls-40" d="M223.45,256.38a.46.46,0,0,1-.62.23.47.47,0,0,1,.39-.85A.47.47,0,0,1,223.45,256.38Z"/><path class="cls-41" d="M229.45,243.44a.6.6,0,1,1-.3-.79A.59.59,0,0,1,229.45,243.44Z"/><path class="cls-42" d="M215,255.58a2.75,2.75,0,1,1-1.37-3.64A2.75,2.75,0,0,1,215,255.58Z"/><path class="cls-43" d="M271.51,256.25a2.75,2.75,0,1,1-1.38-3.64A2.76,2.76,0,0,1,271.51,256.25Z"/><path class="cls-44" d="M339.46,101.87a2.75,2.75,0,1,1-1.37-3.64A2.75,2.75,0,0,1,339.46,101.87Z"/><path class="cls-45" d="M238.91,297.51a1.3,1.3,0,1,1-.65-1.71A1.29,1.29,0,0,1,238.91,297.51Z"/><path class="cls-46" d="M253.38,311.27a2.75,2.75,0,1,1-1.38-3.64A2.76,2.76,0,0,1,253.38,311.27Z"/><path class="cls-47" d="M221.77,245.68a1.45,1.45,0,1,1-.72-1.91A1.45,1.45,0,0,1,221.77,245.68Z"/><path class="cls-48" d="M605.18,103.09a1.3,1.3,0,1,1-.64-1.72A1.28,1.28,0,0,1,605.18,103.09Z"/><path class="cls-49" d="M595.08,116.31a.47.47,0,1,1-.23-.62A.47.47,0,0,1,595.08,116.31Z"/><path class="cls-50" d="M601.08,103.37a.6.6,0,1,1-1.09-.49.6.6,0,1,1,1.09.49Z"/><path class="cls-51" d="M586.64,115.51a2.75,2.75,0,1,1-1.37-3.64A2.74,2.74,0,0,1,586.64,115.51Z"/><path class="cls-52" d="M593.4,105.61a1.45,1.45,0,1,1-.72-1.91A1.45,1.45,0,0,1,593.4,105.61Z"/><path class="cls-53" d="M601,235.17a1.3,1.3,0,0,1-1.72.64,1.3,1.3,0,1,1,1.07-2.36A1.31,1.31,0,0,1,601,235.17Z"/><path class="cls-54" d="M603.15,278.29a1.3,1.3,0,1,1-.65-1.72A1.31,1.31,0,0,1,603.15,278.29Z"/><path class="cls-55" d="M597.33,288.22a2.09,2.09,0,1,1-1-2.76A2.09,2.09,0,0,1,597.33,288.22Z"/><path class="cls-56" d="M418.8,83.09a.47.47,0,1,1-.85-.38.48.48,0,0,1,.62-.24A.46.46,0,0,1,418.8,83.09Z"/><path class="cls-57" d="M608.33,337.77a.59.59,0,0,1-.79.29.6.6,0,0,1-.3-.79.61.61,0,0,1,.8-.3A.6.6,0,0,1,608.33,337.77Z"/><path class="cls-58" d="M410.37,82.3A2.75,2.75,0,1,1,409,78.65,2.76,2.76,0,0,1,410.37,82.3Z"/><path class="cls-59" d="M417.12,72.4a1.45,1.45,0,0,1-2.64-1.2,1.45,1.45,0,1,1,2.64,1.2Z"/><path class="cls-60" d="M700.28,255.93a7,7,0,1,1-3.47-9.21A7,7,0,0,1,700.28,255.93Z"/><path class="cls-61" d="M540.36,159.11a7,7,0,1,1-3.47-9.21A7,7,0,0,1,540.36,159.11Z"/><circle class="cls-62" cx="575.48" cy="61.76" r="6.96" transform="translate(299.64 570.58) rotate(-67.66)"/><path class="cls-63" d="M420.73,96a2.51,2.51,0,1,1-1.26-3.32A2.51,2.51,0,0,1,420.73,96Z"/><circle class="cls-64" cx="670.24" cy="291.62" r="12.67" transform="translate(316.49 931.24) rotate(-84.57)"/><path class="cls-65" d="M681.5,237.68a3.21,3.21,0,1,1-1.6-4.25A3.21,3.21,0,0,1,681.5,237.68Z"/><circle class="cls-66" cx="590.64" cy="296.69" r="14.76" transform="translate(-66.51 225.76) rotate(-20.51)"/><path class="cls-67" d="M629.34,249.27A7.76,7.76,0,1,1,625.47,239,7.76,7.76,0,0,1,629.34,249.27Z"/><path class="cls-68" d="M235.36,218.34a1.44,1.44,0,1,1-.72-1.91A1.44,1.44,0,0,1,235.36,218.34Z"/><path class="cls-69" d="M540.67,247.66a.59.59,0,0,1-.79.29.6.6,0,0,1-.3-.79.61.61,0,0,1,.8-.3A.6.6,0,0,1,540.67,247.66Z"/><path class="cls-70" d="M535,247.23a.6.6,0,0,1-1.09-.49.6.6,0,0,1,.79-.3A.6.6,0,0,1,535,247.23Z"/><path class="cls-71" d="M534.12,280.05a1.3,1.3,0,1,1-.65-1.72A1.3,1.3,0,0,1,534.12,280.05Z"/><path class="cls-72" d="M524.82,321.79a1.3,1.3,0,1,1-2.37-1.07,1.3,1.3,0,1,1,2.37,1.07Z"/><path class="cls-73" d="M537.28,342.29a1.3,1.3,0,1,1-.64-1.72A1.29,1.29,0,0,1,537.28,342.29Z"/><path class="cls-74" d="M530,280.33a.6.6,0,1,1-.3-.8A.6.6,0,0,1,530,280.33Z"/><path class="cls-75" d="M528.87,362.44a2.75,2.75,0,1,1-1.38-3.64A2.76,2.76,0,0,1,528.87,362.44Z"/><path class="cls-76" d="M535.93,255.23a1.45,1.45,0,1,1-.72-1.91A1.44,1.44,0,0,1,535.93,255.23Z"/><path class="cls-77" d="M549.19,90.52a.6.6,0,0,1-.79.3.6.6,0,1,1,.79-.3Z"/><path class="cls-78" d="M543.49,90.1a.62.62,0,0,1-.8.3.6.6,0,1,1,.8-.3Z"/><path class="cls-79" d="M542.63,122.91a1.3,1.3,0,1,1-.64-1.72A1.3,1.3,0,0,1,542.63,122.91Z"/><path class="cls-80" d="M538.53,123.19a.6.6,0,1,1-.3-.79A.59.59,0,0,1,538.53,123.19Z"/><path class="cls-81" d="M544.45,98.1a1.45,1.45,0,1,1-2.64-1.2,1.44,1.44,0,0,1,1.91-.72A1.46,1.46,0,0,1,544.45,98.1Z"/><path class="cls-82" d="M187.44,212.89a1.45,1.45,0,1,1,0-2A1.44,1.44,0,0,1,187.44,212.89Z"/><path class="cls-83" d="M623,162.2a1.3,1.3,0,1,1,0-1.84A1.31,1.31,0,0,1,623,162.2Z"/><path class="cls-84" d="M618.47,156.08a.61.61,0,0,1-.85,0,.6.6,0,0,1,0-.85.59.59,0,0,1,.84,0A.6.6,0,0,1,618.47,156.08Z"/><path class="cls-85" d="M631.73,170.82A9.06,9.06,0,1,1,632,158,9.06,9.06,0,0,1,631.73,170.82Z"/><path class="cls-86" d="M594.32,192.21a1.3,1.3,0,0,1-2.37-1.07,1.3,1.3,0,0,1,2.37,1.07Z"/><path class="cls-87" d="M588.5,202.14a2.09,2.09,0,1,1-1-2.76A2.08,2.08,0,0,1,588.5,202.14Z"/><path class="cls-88" d="M626.82,207.5a2.75,2.75,0,1,1-1.37-3.65A2.75,2.75,0,0,1,626.82,207.5Z"/><path class="cls-89" d="M512.59,151.34a1.45,1.45,0,1,1-.72-1.91A1.45,1.45,0,0,1,512.59,151.34Z"/><path class="cls-90" d="M602.57,164.63a1.45,1.45,0,1,1,0-2A1.45,1.45,0,0,1,602.57,164.63Z"/></g></g></g></svg>