<svg width="1920" height="1080" viewBox="0 0 1920 1080" xmlns="http://www.w3.org/2000/svg"><path d="M1920,1080C1611.1666666666667,1098,309.5,1093.3333333333333,0,1080C-309.5,1066.6666666666667,41.33333333333333,1000.5,63,1000C84.66666666666667,999.5,108,1079.6666666666667,130,1077C152,1074.3333333333333,173,985.1666666666666,195,984C217,982.8333333333334,239.5,1061.3333333333333,262,1070C284.5,1078.6666666666667,307.6666666666667,1041.5,330,1036C352.3333333333333,1030.5,374.1666666666667,1047.5,396,1037C417.8333333333333,1026.5,439,983.8333333333334,461,973C483,962.1666666666666,505.6666666666667,963.8333333333334,528,972C550.3333333333334,980.1666666666666,572.8333333333334,1018,595,1022C617.1666666666666,1026,639,991.6666666666666,661,996C683,1000.3333333333334,705,1035,727,1048C749,1061,771.1666666666666,1074.8333333333333,793,1074C814.8333333333334,1073.1666666666667,836,1058,858,1043C880,1028,903,995.5,925,984C947,972.5,968.1666666666666,966,990,974C1011.8333333333334,982,1033.6666666666667,1017.8333333333334,1056,1032C1078.3333333333333,1046.1666666666667,1102,1060.6666666666667,1124,1059C1146,1057.3333333333333,1165.8333333333333,1031.3333333333333,1188,1022C1210.1666666666667,1012.6666666666666,1234.6666666666667,997.8333333333334,1257,1003C1279.3333333333333,1008.1666666666666,1300,1052.5,1322,1053C1344,1053.5,1366.6666666666667,1012.3333333333334,1389,1006C1411.3333333333333,999.6666666666666,1434,1004.5,1456,1015C1478,1025.5,1499,1059,1521,1069C1543,1079,1566.1666666666667,1090.3333333333333,1588,1075C1609.8333333333333,1059.6666666666667,1630,980.1666666666666,1652,977C1674,973.8333333333334,1698,1055.5,1720,1056C1742,1056.5,1761.8333333333333,994,1784,980C1806.1666666666667,966,1830.3333333333333,955.3333333333334,1853,972C1875.6666666666667,988.6666666666666,2228.8333333333335,1062,1920,1080C1611.1666666666667,1098,309.5,1093.3333333333333,0,1080" fill="#ffffff"/></svg>