<svg xmlns="http://www.w3.org/2000/svg" version="1.1" xmlns:xlink="http://www.w3.org/1999/xlink" xmlns:svgjs="http://svgjs.dev/svgjs" width="1440" height="214" preserveAspectRatio="none" viewBox="0 0 1440 214"><g mask="url(&quot;#SvgjsMask1348&quot;)" fill="none"><path d="M -897.895335171032,129 C -801.9,110.2 -609.9,34.4 -417.895335171032,35 C -225.9,35.6 -129.9,125.4 62.104664828968,132 C 254.1,138.6 350.1,62 542.104664828968,68 C 734.1,74 842.53,156 1022.104664828968,162 C 1201.68,168 1356.42,110.8 1440,98" stroke="rgba(255, 255, 255)" stroke-width="2"></path><path d="M -734.8472883471859,79 C -638.85,86.4 -446.85,118.8 -254.84728834718595,116 C -62.85,113.2 33.15,63.8 225.15271165281405,65 C 417.15,66.2 513.15,126.8 705.1527116528141,122 C 897.15,117.2 1038.18,32.6 1185.152711652814,41 C 1332.12,49.4 1389.03,139.4 1440,164" stroke="rgba(255, 255, 255, 0.45)" stroke-width="2"></path><path d="M -876.6576441768664,82 C -780.66,94.2 -588.66,155.2 -396.65764417686637,143 C -204.66,130.8 -108.66,12.8 83.34235582313363,21 C 275.34,29.2 371.34,179.2 563.3423558231336,184 C 755.34,188.8 868.01,53.2 1043.3423558231336,45 C 1218.67,36.8 1360.67,123.4 1440,143" stroke="rgba(255, 255, 255 )" stroke-width="2"></path><path d="M -788.1258518302702,166 C -692.13,146 -500.13,63 -308.12585183027016,66 C -116.13,69 -20.13,173 171.87414816972984,181 C 363.87,189 459.87,119.4 651.8741481697298,106 C 843.87,92.6 974.25,124.8 1131.8741481697298,114 C 1289.5,103.2 1378.37,64.4 1440,52" stroke="rgba(255, 255, 255)" stroke-width="2"></path></g><defs><mask id="SvgjsMask1348"><rect width="1440" height="214" fill="#ffffff"></rect></mask></defs></svg>